<?xml version="1.0" encoding="UTF-8"?>
<svg id="Layer_2" data-name="Layer 2" xmlns="http://www.w3.org/2000/svg" viewBox="0 0 432.86 353.47">
  <defs>
    <style>
      .cls-1 {
        fill: #936d42;
      }
    </style>
  </defs>
  <g id="Layer_3" data-name="Layer 3">
    <g>
      <path class="cls-1" d="M216.42,103.78c-40.28,0-72.93,32.65-72.93,72.93s32.65,72.93,72.93,72.93,72.93-32.65,72.93-72.93-32.65-72.93-72.93-72.93ZM225.16,123.4c-33.62,0-60.88,27.26-60.88,60.88,0,18.5,8.27,35.07,21.29,46.23-18.62-10.7-31.17-30.78-31.17-53.8,0-34.25,27.77-62.02,62.02-62.02,19.81,0,37.44,9.3,48.79,23.76-10.71-9.37-24.71-15.05-40.06-15.05Z"/>
      <circle class="cls-1" cx="66.3" cy="340.51" r="9.96"/>
      <circle class="cls-1" cx="428.56" cy="4.3" r="4.3"/>
      <circle class="cls-1" cx="344.52" cy="10.97" r="6.06"/>
      <circle class="cls-1" cx="410.68" cy="69.14" r="8.45"/>
      <circle class="cls-1" cx="5.9" cy="347.57" r="5.9"/>
      <circle class="cls-1" cx="30.52" cy="280.69" r="5.9"/>
      <path class="cls-1" d="M432.86,353.47s-128.69-120.32-132.87-130.82c8.08,5.26,28.49,15.9,59.45,14.03,40.79-2.46,63.37,25.41,63.37,25.41,0,0-18.15-36.04-58.3-41-30.36-3.75-47-18.54-54.1-26.79,10.22,2.19,105.81,7.88,105.81,7.88,0,0-94.89-31.79-104.39-37.54,8.17-.7,23.44-4.02,33.69-18.47,17.63-24.87,37.68-23.65,37.68-23.65,0,0-20.65-11.07-42.75,8.06-16.21,14.03-31.59,9.79-39.28,6.06,6.74-2.45,57.12-63.01,57.12-63.01,0,0-65.18,39.95-73.65,38.78,5.65-4.42,18.5-16.63,18.27-36.29-.35-30.48,16.58-41.28,16.58-41.28,0,0-23.21,3.19-29.84,31.65-4.86,20.88-19.81,26.49-28.22,27.99,4.01-5.95,9.17-84.55,9.17-84.55,0,0-29.25,70.64-36.79,74.66,1.98-6.89,5.19-24.33-6.55-40.1-18.21-24.45-10.85-43.15-10.85-43.15,0,0-16.9,16.22-5.54,43.15,8.77,20.78-1.42,34.46-7.28,40.14-2.68-6.61-52.95-83.29-52.95-83.29,0,0,23.9,81.27,23.49,89.49-6.78-8.55-23.54-27.79-41.75-34.4C84.2,38.94,74.55,1.34,74.55,1.34c0,0,5.67,43.15,44.58,64.73,15.58,8.64,23.77,23.68,27.88,34.67C138.47,91.34.52,1.52,0,0c.55,1.63,132.13,122.1,134.31,131.78-6.76-4.64-27.18-16.37-57.23-13.37-45.38,4.53-67.45-30.78-67.45-30.78,0,0,18.42,43.65,62.39,46.36,29.28,1.81,45.41,18.3,51.62,26.37-8.56.16-106.8-7.2-106.8-7.2,0,0,95.12,31.15,103.62,35.66-8.29.8-23.12,4.3-33.13,18.43-17.63,24.87-37.68,23.65-37.68,23.65,0,0,20.65,11.07,42.75-8.06,16.21-14.03,31.59-9.79,39.28-6.06-6.74,2.45-57.12,63.01-57.12,63.01,0,0,65.18-39.95,73.65-38.78-5.65,4.42-18.5,16.63-18.27,36.29.35,30.48-16.58,41.28-16.58,41.28,0,0,23.21-3.19,29.84-31.65,4.86-20.88,19.81-26.49,28.22-27.99-4.01,5.95-9.17,84.55-9.17,84.55,0,0,29.25-70.64,36.79-74.66-1.98,6.89-5.19,24.33,6.55,40.1,18.21,24.45,10.85,43.15,10.85,43.15,0,0,16.9-16.22,5.54-43.15-8.34-19.75.45-33.07,6.38-39.23.25,7.17,42.28,73.79,42.28,73.79,0,0-18.05-73.61-14.39-81.47,2.18,8,11.06,27.7,46.78,42.72,40.53,17.05,52.86,47.33,52.86,47.33,0,0-2.19-31.39-39.6-56.97-25.58-17.48-32.17-37.22-33.79-47.96,6.68,7.44,150.39,106.31,150.39,106.31ZM216.42,267.38c-50.07,0-90.67-40.59-90.67-90.67s40.59-90.67,90.67-90.67,90.67,40.59,90.67,90.67-40.59,90.67-90.67,90.67Z"/>
    </g>
  </g>
</svg>