<?xml version="1.0" encoding="UTF-8"?>
<svg id="Layer_2" data-name="Layer 2" xmlns="http://www.w3.org/2000/svg" viewBox="0 0 730.35 139.55">
  <defs>
    <style>
      .cls-1 {
        fill: #936d42;
      }

      .cls-2 {
        fill: #433e37;
      }
    </style>
  </defs>
  <g id="Layer_3" data-name="Layer 3">
    <g>
      <g>
        <path class="cls-1" d="M85.44,40.97c-15.9,0-28.79,12.89-28.79,28.79s12.89,28.79,28.79,28.79,28.79-12.89,28.79-28.79-12.89-28.79-28.79-28.79ZM88.89,48.72c-13.27,0-24.04,10.76-24.04,24.04,0,7.31,3.26,13.84,8.41,18.25-7.35-4.23-12.31-12.15-12.31-21.24,0-13.52,10.96-24.49,24.49-24.49,7.82,0,14.78,3.67,19.26,9.38-4.23-3.7-9.76-5.94-15.81-5.94Z"/>
        <circle class="cls-1" cx="26.18" cy="134.43" r="3.93"/>
        <circle class="cls-1" cx="169.2" cy="1.7" r="1.7"/>
        <circle class="cls-1" cx="136.01" cy="4.33" r="2.39"/>
        <circle class="cls-1" cx="162.14" cy="27.3" r="3.34"/>
        <circle class="cls-1" cx="2.33" cy="137.22" r="2.33"/>
        <circle class="cls-1" cx="12.05" cy="110.81" r="2.33"/>
        <path class="cls-1" d="M170.89,139.55s-50.81-47.5-52.46-51.65c3.19,2.08,11.25,6.28,23.47,5.54,16.11-.97,25.02,10.03,25.02,10.03,0,0-7.17-14.23-23.02-16.19-11.99-1.48-18.56-7.32-21.36-10.58,4.04.86,41.78,3.11,41.78,3.11,0,0-37.46-12.55-41.21-14.82,3.22-.28,9.25-1.59,13.3-7.29,6.96-9.82,14.88-9.34,14.88-9.34,0,0-8.15-4.37-16.88,3.18-6.4,5.54-12.47,3.87-15.51,2.39,2.66-.97,22.55-24.88,22.55-24.88,0,0-25.73,15.77-29.08,15.31,2.23-1.74,7.3-6.57,7.21-14.33-.14-12.04,6.55-16.3,6.55-16.3,0,0-9.16,1.26-11.78,12.5-1.92,8.24-7.82,10.46-11.14,11.05,1.58-2.35,3.62-33.38,3.62-33.38,0,0-11.55,27.89-14.52,29.48.78-2.72,2.05-9.6-2.59-15.83-7.19-9.65-4.28-17.03-4.28-17.03,0,0-6.67,6.4-2.19,17.03,3.46,8.21-.56,13.6-2.87,15.85C79.32,30.8,59.48.53,59.48.53c0,0,9.44,32.08,9.27,35.33-2.68-3.37-9.3-10.97-16.48-13.58C33.24,15.37,29.43.53,29.43.53c0,0,2.24,17.03,17.6,25.55,6.15,3.41,9.38,9.35,11.01,13.69C54.67,36.06.21.6,0,0c.22.64,52.17,48.21,53.03,52.03-2.67-1.83-10.73-6.46-22.6-5.28-17.92,1.79-26.63-12.15-26.63-12.15,0,0,7.27,17.23,24.63,18.3,11.56.71,17.93,7.23,20.38,10.41-3.38.06-42.16-2.84-42.16-2.84,0,0,37.56,12.3,40.91,14.08-3.27.32-9.13,1.7-13.08,7.27-6.96,9.82-14.88,9.34-14.88,9.34,0,0,8.15,4.37,16.88-3.18,6.4-5.54,12.47-3.87,15.51-2.39-2.66.97-22.55,24.88-22.55,24.88,0,0,25.73-15.77,29.08-15.31-2.23,1.74-7.3,6.57-7.21,14.33.14,12.04-6.55,16.3-6.55,16.3,0,0,9.16-1.26,11.78-12.5,1.92-8.24,7.82-10.46,11.14-11.05-1.58,2.35-3.62,33.38-3.62,33.38,0,0,11.55-27.89,14.52-29.48-.78,2.72-2.05,9.6,2.59,15.83,7.19,9.65,4.28,17.03,4.28,17.03,0,0,6.67-6.4,2.19-17.03-3.29-7.8.18-13.06,2.52-15.49.1,2.83,16.69,29.13,16.69,29.13,0,0-7.13-29.06-5.68-32.17.86,3.16,4.37,10.94,18.47,16.87,16,6.73,20.87,18.69,20.87,18.69,0,0-.86-12.39-15.63-22.49-10.1-6.9-12.7-14.7-13.34-18.94,2.64,2.94,59.37,41.97,59.37,41.97ZM85.44,105.56c-19.77,0-35.8-16.03-35.8-35.8s16.03-35.8,35.8-35.8,35.8,16.03,35.8,35.8-16.03,35.8-35.8,35.8Z"/>
      </g>
      <g>
        <path class="cls-2" d="M214.88,92.11v-1.09l7.06-2.78v-37.19h-10.25l-5.09,10.65h-1.09v-14.39h41.4v14.39h-1.09l-5.09-10.65h-10.25v37.19l6.99,2.78v1.09h-22.6Z"/>
        <path class="cls-2" d="M253.22,92.11v-1.09l5.63-2.78v-37.05l-5.63-2.78v-1.09h19.48v1.09l-5.36,2.78v15.95h20.56v-15.95l-5.36-2.78v-1.09h19.54v1.09l-5.63,2.78v37.05l5.63,2.78v1.09h-19.54v-1.09l5.36-2.78v-17.37h-20.56v17.37l5.36,2.78v1.09h-19.48Z"/>
        <path class="cls-2" d="M309.2,92.11v-1.09l5.63-2.78v-37.05l-5.63-2.78v-1.09h35.42v11.74h-1.09l-4.68-8.01h-15.54v16.08h10.93l3.67-5.77h1.09v15.13h-1.09l-3.67-5.63h-10.93v17.51h17.24l4.89-9.5h1.09v13.23h-37.32Z"/>
        <path class="cls-2" d="M386.16,92.79c-2.9,0-5.41-.28-7.53-.85-2.13-.57-4.25-1.39-6.38-2.48l-.68-11.33h1.15l4.14,7.8c2.8,2.31,5.74,3.46,8.82,3.46,2.53,0,4.57-.62,6.11-1.87,1.54-1.24,2.31-3.02,2.31-5.33,0-1.72-.4-3.11-1.19-4.17-.79-1.06-2-2.04-3.63-2.92-1.63-.88-3.73-1.91-6.31-3.09-3.21-1.54-5.68-3.2-7.4-4.99-1.72-1.79-2.58-4.2-2.58-7.23,0-1.67.42-3.3,1.26-4.89.84-1.58,1.98-3,3.43-4.24,1.45-1.24,3.08-2.23,4.89-2.95,1.81-.72,3.64-1.09,5.5-1.09,2.26,0,4.38.26,6.35.78,1.97.52,3.86,1.26,5.67,2.21l.68,10.86h-1.09l-4.14-7.46c-1.31-.99-2.54-1.74-3.7-2.24-1.15-.5-2.45-.75-3.9-.75-1.9,0-3.47.63-4.72,1.9-1.24,1.27-1.87,2.87-1.87,4.82s.68,3.68,2.04,4.92c1.36,1.24,3.62,2.61,6.79,4.11,2.76,1.27,5.02,2.51,6.79,3.73,1.76,1.22,3.08,2.6,3.94,4.14.86,1.54,1.29,3.44,1.29,5.7s-.46,4.08-1.39,5.73c-.93,1.65-2.17,3.05-3.73,4.21-1.56,1.15-3.29,2.03-5.19,2.61-1.9.59-3.8.88-5.7.88Z"/>
        <path class="cls-2" d="M433.86,92.79c-3.71,0-6.99-.63-9.84-1.9s-5.09-3.31-6.72-6.14c-1.63-2.83-2.44-6.53-2.44-11.1v-22.46l-5.63-2.78v-1.09h19.82v1.09l-5.63,2.78v22.06c0,3.76.59,6.72,1.76,8.89,1.18,2.17,2.75,3.72,4.72,4.65,1.97.93,4.17,1.39,6.62,1.39,1.99,0,3.83-.42,5.53-1.26,1.7-.84,3.06-2.17,4.11-4,1.04-1.83,1.56-4.26,1.56-7.3v-24.57l-6.51-2.65v-1.09h16.9v1.09l-5.63,2.71v22.53c0,4.57-.79,8.27-2.38,11.1-1.58,2.83-3.78,4.88-6.58,6.14-2.81,1.27-6.02,1.9-9.64,1.9Z"/>
        <path class="cls-2" d="M465.01,92.11v-1.09l5.7-2.78v-36.98l-5.63-2.85v-1.09h11.67l26.19,30.95v-27.21l-7.33-2.65v-1.09h17.64v1.09l-5.56,2.71v41.33h-3.53l-28.71-33.8v29.66l7.33,2.71v1.09h-17.78Z"/>
        <path class="cls-2" d="M560.63,92.79c-4.71,0-8.79-.96-12.25-2.88-3.46-1.92-6.15-4.55-8.08-7.87-1.92-3.33-2.88-7.09-2.88-11.3,0-3.3.66-6.4,1.97-9.3,1.31-2.89,3.1-5.45,5.36-7.67,2.26-2.22,4.85-3.96,7.77-5.23,2.92-1.27,5.98-1.9,9.2-1.9,2.31,0,4.26.15,5.87.44,1.6.29,3.03.68,4.27,1.15,1.24.48,2.5,1.03,3.77,1.66l.61,12.35h-1.22l-5.5-9.57c-1.36-.9-2.6-1.57-3.73-2-1.13-.43-2.44-.64-3.94-.64-2.94,0-5.59.81-7.94,2.44-2.35,1.63-4.21,3.91-5.56,6.85-1.36,2.94-2.04,6.33-2.04,10.18,0,4.12.66,7.65,1.97,10.59,1.31,2.94,3.09,5.2,5.33,6.79,2.24,1.58,4.74,2.38,7.5,2.38,2.04,0,3.79-.27,5.26-.81,1.47-.54,2.82-1.2,4.04-1.97l5.29-8.35h1.15l-.88,11.2c-1.9,1.04-4.06,1.88-6.48,2.51-2.42.63-5.37.95-8.86.95Z"/>
        <path class="cls-2" d="M582.82,92.11v-1.09l4.21-2.31,17.58-41.74h4.75l17.37,41.67,4.61,2.38v1.09h-19.54v-1.09l5.9-2.38-4.82-11.81h-16.22l-4.82,11.81,5.63,2.38v1.09h-14.66ZM598.16,73.11h13.17l-6.58-16.15-6.58,16.15Z"/>
        <path class="cls-2" d="M636.57,92.11v-1.09l5.63-2.78v-37.05l-5.63-2.78v-1.09h20.83c4.75,0,8.49.98,11.23,2.95,2.74,1.97,4.11,4.67,4.11,8.11,0,2.53-.85,4.74-2.54,6.62-1.7,1.88-3.93,3.34-6.68,4.38l12.69,19,4.75,2.65v1.09h-12.69l-12.83-20.7h-4.75v16.76l5.09,2.85v1.09h-19.21ZM654.14,51.05h-3.46v16.9h3.87c2.8,0,5.08-.8,6.82-2.41,1.74-1.6,2.61-3.65,2.61-6.14,0-2.62-.86-4.67-2.58-6.14-1.72-1.47-4.14-2.21-7.26-2.21Z"/>
        <path class="cls-2" d="M684.07,92.11v-1.09l5.63-2.78v-37.05l-5.63-2.78v-1.09h21.78c5.2,0,9.62.88,13.27,2.65,3.64,1.76,6.42,4.19,8.35,7.26,1.92,3.08,2.88,6.56,2.88,10.45,0,3.53-.62,6.78-1.87,9.74-1.25,2.96-2.99,5.54-5.23,7.74-2.24,2.2-4.89,3.9-7.94,5.12-3.05,1.22-6.37,1.83-9.94,1.83h-21.31ZM703.55,51.05h-5.36v37.32h6.38c3.57,0,6.62-.76,9.13-2.27,2.51-1.52,4.43-3.66,5.77-6.45,1.33-2.78,2-6.07,2-9.87,0-5.7-1.53-10.25-4.58-13.64-3.05-3.39-7.5-5.09-13.33-5.09Z"/>
      </g>
    </g>
  </g>
</svg>